{
	"asset":{
		"generator":"Khronos glTF Blender I/O v5.2.39",
		"version":"2.0"
	},
	"scene":0,
	"scenes":[
		{
			"extras":{
				"uuid":"fe724002-1b06-4b77-bd3b-69e6411524f5",
				"assets reported":{}
			},
			"name":"THE MIST VILLAGE",
			"nodes":[
				0,
				1,
				2,
				3,
				4,
				5
			]
		}
	],
	"nodes":[
		{
			"mesh":0,
			"name":"Flank \u2014 northern hills"
		},
		{
			"mesh":1,
			"name":"Flank \u2014 southern hills"
		},
		{
			"mesh":2,
			"name":"Ridge 1 \u2014 near spur (4 km)"
		},
		{
			"mesh":3,
			"name":"Ridge 2 \u2014 Kotagiri\u2013Kodanad range (7 km)"
		},
		{
			"mesh":4,
			"name":"Ridge 3 \u2014 Doddabetta massif (11 km)"
		},
		{
			"mesh":5,
			"name":"Ridge 4 \u2014 far Nilgiri escarpment (17 km)"
		}
	],
	"materials":[
		{
			"name":"Nilgiri Ridge \u2014 shola + grassland (baked)",
			"pbrMetallicRoughness":{
				"metallicFactor":0,
				"roughnessFactor":0.9200000166893005
			}
		}
	],
	"meshes":[
		{
			"name":"Flank \u2014 northern hills",
			"primitives":[
				{
					"attributes":{
						"POSITION":0,
						"NORMAL":1,
						"COLOR_0":2
					},
					"indices":3,
					"material":0
				}
			]
		},
		{
			"name":"Flank \u2014 southern hills",
			"primitives":[
				{
					"attributes":{
						"POSITION":4,
						"NORMAL":5,
						"COLOR_0":6
					},
					"indices":7,
					"material":0
				}
			]
		},
		{
			"name":"Ridge 1 \u2014 near spur (4 km)",
			"primitives":[
				{
					"attributes":{
						"POSITION":8,
						"NORMAL":9,
						"COLOR_0":10
					},
					"indices":11,
					"material":0
				}
			]
		},
		{
			"name":"Ridge 2 \u2014 Kotagiri\u2013Kodanad range (7 km)",
			"primitives":[
				{
					"attributes":{
						"POSITION":12,
						"NORMAL":13,
						"COLOR_0":14
					},
					"indices":15,
					"material":0
				}
			]
		},
		{
			"name":"Ridge 3 \u2014 Doddabetta massif (11 km)",
			"primitives":[
				{
					"attributes":{
						"POSITION":16,
						"NORMAL":17,
						"COLOR_0":18
					},
					"indices":19,
					"material":0
				}
			]
		},
		{
			"name":"Ridge 4 \u2014 far Nilgiri escarpment (17 km)",
			"primitives":[
				{
					"attributes":{
						"POSITION":20,
						"NORMAL":21,
						"COLOR_0":22
					},
					"indices":23,
					"material":0
				}
			]
		}
	],
	"accessors":[
		{
			"bufferView":0,
			"componentType":5126,
			"count":3400,
			"max":[
				2880,
				935.9271240234375,
				-6300
			],
			"min":[
				-9000,
				182.59519958496094,
				-10260
			],
			"type":"VEC3"
		},
		{
			"bufferView":1,
			"componentType":5126,
			"count":3400,
			"type":"VEC3"
		},
		{
			"bufferView":2,
			"componentType":5126,
			"count":3400,
			"type":"VEC3"
		},
		{
			"bufferView":3,
			"componentType":5123,
			"count":19602,
			"type":"SCALAR"
		},
		{
			"bufferView":4,
			"componentType":5126,
			"count":3400,
			"max":[
				2880,
				911.8026123046875,
				10260
			],
			"min":[
				-9000,
				181.55796813964844,
				6300
			],
			"type":"VEC3"
		},
		{
			"bufferView":5,
			"componentType":5126,
			"count":3400,
			"type":"VEC3"
		},
		{
			"bufferView":6,
			"componentType":5126,
			"count":3400,
			"type":"VEC3"
		},
		{
			"bufferView":7,
			"componentType":5123,
			"count":19602,
			"type":"SCALAR"
		},
		{
			"bufferView":8,
			"componentType":5126,
			"count":10951,
			"max":[
				-3600,
				579.734130859375,
				13000
			],
			"min":[
				-6820,
				-140,
				-12984
			],
			"type":"VEC3"
		},
		{
			"bufferView":9,
			"componentType":5126,
			"count":10951,
			"type":"VEC3"
		},
		{
			"bufferView":10,
			"componentType":5126,
			"count":10951,
			"type":"VEC3"
		},
		{
			"bufferView":11,
			"componentType":5123,
			"count":64032,
			"type":"SCALAR"
		},
		{
			"bufferView":12,
			"componentType":5126,
			"count":14213,
			"max":[
				-6200,
				911.7066650390625,
				13000
			],
			"min":[
				-10400,
				-160,
				-12984
			],
			"type":"VEC3"
		},
		{
			"bufferView":13,
			"componentType":5126,
			"count":14213,
			"type":"VEC3"
		},
		{
			"bufferView":14,
			"componentType":5126,
			"count":14213,
			"type":"VEC3"
		},
		{
			"bufferView":15,
			"componentType":5123,
			"count":83520,
			"type":"SCALAR"
		},
		{
			"bufferView":16,
			"componentType":5126,
			"count":17708,
			"max":[
				-9800,
				1398.5682373046875,
				13000
			],
			"min":[
				-15050,
				-200,
				-12984
			],
			"type":"VEC3"
		},
		{
			"bufferView":17,
			"componentType":5126,
			"count":17708,
			"type":"VEC3"
		},
		{
			"bufferView":18,
			"componentType":5126,
			"count":17708,
			"type":"VEC3"
		},
		{
			"bufferView":19,
			"componentType":5123,
			"count":104400,
			"type":"SCALAR"
		},
		{
			"bufferView":20,
			"componentType":5126,
			"count":23533,
			"max":[
				-15500,
				1336.969482421875,
				13000
			],
			"min":[
				-22500,
				-260,
				-12984
			],
			"type":"VEC3"
		},
		{
			"bufferView":21,
			"componentType":5126,
			"count":23533,
			"type":"VEC3"
		},
		{
			"bufferView":22,
			"componentType":5126,
			"count":23533,
			"type":"VEC3"
		},
		{
			"bufferView":23,
			"componentType":5123,
			"count":139200,
			"type":"SCALAR"
		}
	],
	"bufferViews":[
		{
			"buffer":0,
			"byteLength":40800,
			"byteOffset":0,
			"target":34962
		},
		{
			"buffer":0,
			"byteLength":40800,
			"byteOffset":40800,
			"target":34962
		},
		{
			"buffer":0,
			"byteLength":40800,
			"byteOffset":81600,
			"target":34962
		},
		{
			"buffer":0,
			"byteLength":39204,
			"byteOffset":122400,
			"target":34963
		},
		{
			"buffer":0,
			"byteLength":40800,
			"byteOffset":161604,
			"target":34962
		},
		{
			"buffer":0,
			"byteLength":40800,
			"byteOffset":202404,
			"target":34962
		},
		{
			"buffer":0,
			"byteLength":40800,
			"byteOffset":243204,
			"target":34962
		},
		{
			"buffer":0,
			"byteLength":39204,
			"byteOffset":284004,
			"target":34963
		},
		{
			"buffer":0,
			"byteLength":131412,
			"byteOffset":323208,
			"target":34962
		},
		{
			"buffer":0,
			"byteLength":131412,
			"byteOffset":454620,
			"target":34962
		},
		{
			"buffer":0,
			"byteLength":131412,
			"byteOffset":586032,
			"target":34962
		},
		{
			"buffer":0,
			"byteLength":128064,
			"byteOffset":717444,
			"target":34963
		},
		{
			"buffer":0,
			"byteLength":170556,
			"byteOffset":845508,
			"target":34962
		},
		{
			"buffer":0,
			"byteLength":170556,
			"byteOffset":1016064,
			"target":34962
		},
		{
			"buffer":0,
			"byteLength":170556,
			"byteOffset":1186620,
			"target":34962
		},
		{
			"buffer":0,
			"byteLength":167040,
			"byteOffset":1357176,
			"target":34963
		},
		{
			"buffer":0,
			"byteLength":212496,
			"byteOffset":1524216,
			"target":34962
		},
		{
			"buffer":0,
			"byteLength":212496,
			"byteOffset":1736712,
			"target":34962
		},
		{
			"buffer":0,
			"byteLength":212496,
			"byteOffset":1949208,
			"target":34962
		},
		{
			"buffer":0,
			"byteLength":208800,
			"byteOffset":2161704,
			"target":34963
		},
		{
			"buffer":0,
			"byteLength":282396,
			"byteOffset":2370504,
			"target":34962
		},
		{
			"buffer":0,
			"byteLength":282396,
			"byteOffset":2652900,
			"target":34962
		},
		{
			"buffer":0,
			"byteLength":282396,
			"byteOffset":2935296,
			"target":34962
		},
		{
			"buffer":0,
			"byteLength":278400,
			"byteOffset":3217692,
			"target":34963
		}
	],
	"buffers":[
		{
			"byteLength":3496092,
			"uri":"mountains.bin"
		}
	]
}
