{
	"asset":{
		"generator":"Khronos glTF Blender I/O v5.2.39",
		"version":"2.0"
	},
	"scene":0,
	"scenes":[
		{
			"extras":{
				"uuid":"fe724002-1b06-4b77-bd3b-69e6411524f5",
				"assets reported":{}
			},
			"name":"THE MIST VILLAGE",
			"nodes":[
				0,
				1,
				2
			]
		}
	],
	"nodes":[
		{
			"mesh":0,
			"name":"terrain_far"
		},
		{
			"mesh":1,
			"name":"terrain_mid-col"
		},
		{
			"mesh":2,
			"name":"terrain_near-col"
		}
	],
	"materials":[
		{
			"name":"Nilgiri Terrain (baked)",
			"pbrMetallicRoughness":{
				"metallicFactor":0,
				"roughnessFactor":0.9200000166893005
			}
		}
	],
	"meshes":[
		{
			"name":"Terrain.003",
			"primitives":[
				{
					"attributes":{
						"POSITION":0,
						"NORMAL":1,
						"COLOR_0":2
					},
					"indices":3,
					"material":0
				}
			]
		},
		{
			"name":"Terrain.002",
			"primitives":[
				{
					"attributes":{
						"POSITION":4,
						"NORMAL":5,
						"COLOR_0":6
					},
					"indices":7,
					"material":0
				}
			]
		},
		{
			"name":"Terrain.001",
			"primitives":[
				{
					"attributes":{
						"POSITION":8,
						"NORMAL":9,
						"COLOR_0":10
					},
					"indices":11,
					"material":0
				}
			]
		}
	],
	"accessors":[
		{
			"bufferView":0,
			"componentType":5126,
			"count":50550,
			"max":[
				6731.39501953125,
				566.001953125,
				6728.39501953125
			],
			"min":[
				-6731.39501953125,
				-100.96558380126953,
				-6729.39501953125
			],
			"type":"VEC3"
		},
		{
			"bufferView":1,
			"componentType":5126,
			"count":50550,
			"type":"VEC3"
		},
		{
			"bufferView":2,
			"componentType":5126,
			"count":50550,
			"type":"VEC3"
		},
		{
			"bufferView":3,
			"componentType":5123,
			"count":291168,
			"type":"SCALAR"
		},
		{
			"bufferView":4,
			"componentType":5126,
			"count":74004,
			"max":[
				1608.5108642578125,
				299.85711669921875,
				1605.5108642578125
			],
			"min":[
				-1608.5108642578125,
				-121.26233673095703,
				-1606.5108642578125
			],
			"type":"VEC3"
		},
		{
			"bufferView":5,
			"componentType":5126,
			"count":74004,
			"type":"VEC3"
		},
		{
			"bufferView":6,
			"componentType":5126,
			"count":74004,
			"type":"VEC3"
		},
		{
			"bufferView":7,
			"componentType":5125,
			"count":433452,
			"type":"SCALAR"
		},
		{
			"bufferView":8,
			"componentType":5126,
			"count":160244,
			"max":[
				159.96153259277344,
				30.81844711303711,
				156.96153259277344
			],
			"min":[
				-159.96153259277344,
				-24.870214462280273,
				-157.96153259277344
			],
			"type":"VEC3"
		},
		{
			"bufferView":9,
			"componentType":5126,
			"count":160244,
			"type":"VEC3"
		},
		{
			"bufferView":10,
			"componentType":5126,
			"count":160244,
			"type":"VEC3"
		},
		{
			"bufferView":11,
			"componentType":5125,
			"count":956664,
			"type":"SCALAR"
		}
	],
	"bufferViews":[
		{
			"buffer":0,
			"byteLength":606600,
			"byteOffset":0,
			"target":34962
		},
		{
			"buffer":0,
			"byteLength":606600,
			"byteOffset":606600,
			"target":34962
		},
		{
			"buffer":0,
			"byteLength":606600,
			"byteOffset":1213200,
			"target":34962
		},
		{
			"buffer":0,
			"byteLength":582336,
			"byteOffset":1819800,
			"target":34963
		},
		{
			"buffer":0,
			"byteLength":888048,
			"byteOffset":2402136,
			"target":34962
		},
		{
			"buffer":0,
			"byteLength":888048,
			"byteOffset":3290184,
			"target":34962
		},
		{
			"buffer":0,
			"byteLength":888048,
			"byteOffset":4178232,
			"target":34962
		},
		{
			"buffer":0,
			"byteLength":1733808,
			"byteOffset":5066280,
			"target":34963
		},
		{
			"buffer":0,
			"byteLength":1922928,
			"byteOffset":6800088,
			"target":34962
		},
		{
			"buffer":0,
			"byteLength":1922928,
			"byteOffset":8723016,
			"target":34962
		},
		{
			"buffer":0,
			"byteLength":1922928,
			"byteOffset":10645944,
			"target":34962
		},
		{
			"buffer":0,
			"byteLength":3826656,
			"byteOffset":12568872,
			"target":34963
		}
	],
	"buffers":[
		{
			"byteLength":16395528,
			"uri":"terrain.bin"
		}
	]
}
