{
	"asset":{
		"generator":"Khronos glTF Blender I/O v5.2.39",
		"version":"2.0"
	},
	"scene":0,
	"scenes":[
		{
			"extras":{
				"uuid":"fe724002-1b06-4b77-bd3b-69e6411524f5",
				"assets reported":{}
			},
			"name":"THE MIST VILLAGE",
			"nodes":[
				0
			]
		}
	],
	"nodes":[
		{
			"mesh":0,
			"name":"Valley \u00b7 farmsteads (outside property)"
		}
	],
	"materials":[
		{
			"name":"Warm Mineral Plaster",
			"normalTexture":{
				"index":0
			},
			"pbrMetallicRoughness":{
				"baseColorTexture":{
					"index":1
				},
				"metallicFactor":0,
				"roughnessFactor":0.8799999952316284
			}
		},
		{
			"name":"Farm roof blue",
			"pbrMetallicRoughness":{
				"baseColorFactor":[
					0.05000000074505806,
					0.11999999731779099,
					0.25,
					1
				],
				"metallicFactor":0.4000000059604645,
				"roughnessFactor":0.5
			}
		},
		{
			"name":"Farm roof red",
			"pbrMetallicRoughness":{
				"baseColorFactor":[
					0.25,
					0.05000000074505806,
					0.029999999329447746,
					1
				],
				"metallicFactor":0.4000000059604645,
				"roughnessFactor":0.5
			}
		},
		{
			"name":"Farm roof green",
			"pbrMetallicRoughness":{
				"baseColorFactor":[
					0.05000000074505806,
					0.15000000596046448,
					0.07999999821186066,
					1
				],
				"metallicFactor":0.4000000059604645,
				"roughnessFactor":0.5
			}
		}
	],
	"meshes":[
		{
			"name":"Valley \u00b7 farmsteads (outside property)",
			"primitives":[
				{
					"attributes":{
						"POSITION":0,
						"NORMAL":1,
						"TEXCOORD_0":2
					},
					"indices":3,
					"material":0
				},
				{
					"attributes":{
						"POSITION":4,
						"NORMAL":5,
						"TEXCOORD_0":6
					},
					"indices":7,
					"material":1
				},
				{
					"attributes":{
						"POSITION":8,
						"NORMAL":9,
						"TEXCOORD_0":10
					},
					"indices":11,
					"material":2
				},
				{
					"attributes":{
						"POSITION":12,
						"NORMAL":13,
						"TEXCOORD_0":14
					},
					"indices":15,
					"material":3
				}
			]
		}
	],
	"textures":[
		{
			"sampler":0,
			"source":0
		},
		{
			"sampler":0,
			"source":1
		}
	],
	"images":[
		{
			"mimeType":"image/png",
			"name":"warm_mineral_plaster_normal",
			"uri":"textures/warm_mineral_plaster_normal.png"
		},
		{
			"mimeType":"image/jpeg",
			"name":"warm_mineral_plaster_base",
			"uri":"textures/warm_mineral_plaster_base.jpg"
		}
	],
	"accessors":[
		{
			"bufferView":0,
			"componentType":5126,
			"count":624,
			"max":[
				-85.59918212890625,
				-9.795507431030273,
				775.4874877929688
			],
			"min":[
				-686.99560546875,
				-73.1396484375,
				-752.4188232421875
			],
			"type":"VEC3"
		},
		{
			"bufferView":1,
			"componentType":5126,
			"count":624,
			"type":"VEC3"
		},
		{
			"bufferView":2,
			"componentType":5126,
			"count":624,
			"type":"VEC2"
		},
		{
			"bufferView":3,
			"componentType":5123,
			"count":936,
			"type":"SCALAR"
		},
		{
			"bufferView":4,
			"componentType":5126,
			"count":40,
			"max":[
				-267.2611083984375,
				-33.853614807128906,
				429.6446533203125
			],
			"min":[
				-659.0029907226562,
				-69.68965148925781,
				-508.1072692871094
			],
			"type":"VEC3"
		},
		{
			"bufferView":5,
			"componentType":5126,
			"count":40,
			"type":"VEC3"
		},
		{
			"bufferView":6,
			"componentType":5126,
			"count":40,
			"type":"VEC2"
		},
		{
			"bufferView":7,
			"componentType":5123,
			"count":60,
			"type":"SCALAR"
		},
		{
			"bufferView":8,
			"componentType":5126,
			"count":80,
			"max":[
				-89.99549102783203,
				-8.795507431030273,
				223.5960235595703
			],
			"min":[
				-687.476806640625,
				-62.43818283081055,
				-752.799072265625
			],
			"type":"VEC3"
		},
		{
			"bufferView":9,
			"componentType":5126,
			"count":80,
			"type":"VEC3"
		},
		{
			"bufferView":10,
			"componentType":5126,
			"count":80,
			"type":"VEC2"
		},
		{
			"bufferView":11,
			"componentType":5123,
			"count":120,
			"type":"SCALAR"
		},
		{
			"bufferView":12,
			"componentType":5126,
			"count":88,
			"max":[
				-85.19711303710938,
				-14.138280868530273,
				775.9129028320312
			],
			"min":[
				-667.9627075195312,
				-66.85371398925781,
				-718.539306640625
			],
			"type":"VEC3"
		},
		{
			"bufferView":13,
			"componentType":5126,
			"count":88,
			"type":"VEC3"
		},
		{
			"bufferView":14,
			"componentType":5126,
			"count":88,
			"type":"VEC2"
		},
		{
			"bufferView":15,
			"componentType":5123,
			"count":132,
			"type":"SCALAR"
		}
	],
	"bufferViews":[
		{
			"buffer":0,
			"byteLength":7488,
			"byteOffset":0,
			"target":34962
		},
		{
			"buffer":0,
			"byteLength":7488,
			"byteOffset":7488,
			"target":34962
		},
		{
			"buffer":0,
			"byteLength":4992,
			"byteOffset":14976,
			"target":34962
		},
		{
			"buffer":0,
			"byteLength":1872,
			"byteOffset":19968,
			"target":34963
		},
		{
			"buffer":0,
			"byteLength":480,
			"byteOffset":21840,
			"target":34962
		},
		{
			"buffer":0,
			"byteLength":480,
			"byteOffset":22320,
			"target":34962
		},
		{
			"buffer":0,
			"byteLength":320,
			"byteOffset":22800,
			"target":34962
		},
		{
			"buffer":0,
			"byteLength":120,
			"byteOffset":23120,
			"target":34963
		},
		{
			"buffer":0,
			"byteLength":960,
			"byteOffset":23240,
			"target":34962
		},
		{
			"buffer":0,
			"byteLength":960,
			"byteOffset":24200,
			"target":34962
		},
		{
			"buffer":0,
			"byteLength":640,
			"byteOffset":25160,
			"target":34962
		},
		{
			"buffer":0,
			"byteLength":240,
			"byteOffset":25800,
			"target":34963
		},
		{
			"buffer":0,
			"byteLength":1056,
			"byteOffset":26040,
			"target":34962
		},
		{
			"buffer":0,
			"byteLength":1056,
			"byteOffset":27096,
			"target":34962
		},
		{
			"buffer":0,
			"byteLength":704,
			"byteOffset":28152,
			"target":34962
		},
		{
			"buffer":0,
			"byteLength":264,
			"byteOffset":28856,
			"target":34963
		}
	],
	"samplers":[
		{
			"magFilter":9729,
			"minFilter":9987
		}
	],
	"buffers":[
		{
			"byteLength":29120,
			"uri":"valley.bin"
		}
	]
}
