{
	"asset":{
		"generator":"Khronos glTF Blender I/O v5.2.39",
		"version":"2.0"
	},
	"scene":0,
	"scenes":[
		{
			"extras":{
				"uuid":"fe724002-1b06-4b77-bd3b-69e6411524f5",
				"assets reported":{}
			},
			"name":"THE MIST VILLAGE",
			"nodes":[
				0
			]
		}
	],
	"nodes":[
		{
			"mesh":0,
			"name":"asset \u00b7 fern 0"
		}
	],
	"materials":[
		{
			"doubleSided":true,
			"name":"Tree Fern + Fern Fronds",
			"pbrMetallicRoughness":{
				"baseColorTexture":{
					"index":0
				},
				"metallicFactor":0,
				"roughnessFactor":0.6000000238418579
			}
		}
	],
	"meshes":[
		{
			"name":"asset \u00b7 fern 0",
			"primitives":[
				{
					"attributes":{
						"POSITION":0,
						"NORMAL":1,
						"TEXCOORD_0":2
					},
					"indices":3,
					"material":0
				}
			]
		}
	],
	"textures":[
		{
			"sampler":0,
			"source":0
		}
	],
	"images":[
		{
			"mimeType":"image/jpeg",
			"name":"tree_fern_fern_fronds_base",
			"uri":"textures/tree_fern_fern_fronds_base.jpg"
		}
	],
	"accessors":[
		{
			"bufferView":0,
			"componentType":5126,
			"count":2508,
			"max":[
				0.7618091702461243,
				0.5115938186645508,
				0.5997321009635925
			],
			"min":[
				-0.7445305585861206,
				0,
				-0.5717912316322327
			],
			"type":"VEC3"
		},
		{
			"bufferView":1,
			"componentType":5126,
			"count":2508,
			"type":"VEC3"
		},
		{
			"bufferView":2,
			"componentType":5126,
			"count":2508,
			"type":"VEC2"
		},
		{
			"bufferView":3,
			"componentType":5123,
			"count":3000,
			"type":"SCALAR"
		}
	],
	"bufferViews":[
		{
			"buffer":0,
			"byteLength":30096,
			"byteOffset":0,
			"target":34962
		},
		{
			"buffer":0,
			"byteLength":30096,
			"byteOffset":30096,
			"target":34962
		},
		{
			"buffer":0,
			"byteLength":20064,
			"byteOffset":60192,
			"target":34962
		},
		{
			"buffer":0,
			"byteLength":6000,
			"byteOffset":80256,
			"target":34963
		}
	],
	"samplers":[
		{
			"magFilter":9729,
			"minFilter":9987
		}
	],
	"buffers":[
		{
			"byteLength":86256,
			"uri":"veg_fern_0.bin"
		}
	]
}
