{
	"asset":{
		"generator":"Khronos glTF Blender I/O v5.2.39",
		"version":"2.0"
	},
	"scene":0,
	"scenes":[
		{
			"extras":{
				"uuid":"fe724002-1b06-4b77-bd3b-69e6411524f5",
				"assets reported":{}
			},
			"name":"THE MIST VILLAGE",
			"nodes":[
				0
			]
		}
	],
	"nodes":[
		{
			"mesh":0,
			"name":"asset \u00b7 fern 1"
		}
	],
	"materials":[
		{
			"doubleSided":true,
			"name":"Tree Fern + Fern Fronds",
			"pbrMetallicRoughness":{
				"baseColorTexture":{
					"index":0
				},
				"metallicFactor":0,
				"roughnessFactor":0.6000000238418579
			}
		}
	],
	"meshes":[
		{
			"name":"asset \u00b7 fern 1",
			"primitives":[
				{
					"attributes":{
						"POSITION":0,
						"NORMAL":1,
						"TEXCOORD_0":2
					},
					"indices":3,
					"material":0
				}
			]
		}
	],
	"textures":[
		{
			"sampler":0,
			"source":0
		}
	],
	"images":[
		{
			"mimeType":"image/jpeg",
			"name":"tree_fern_fern_fronds_base",
			"uri":"textures/tree_fern_fern_fronds_base.jpg"
		}
	],
	"accessors":[
		{
			"bufferView":0,
			"componentType":5126,
			"count":597,
			"max":[
				0.5213972926139832,
				0.5281434655189514,
				0.5363893508911133
			],
			"min":[
				-0.6716476082801819,
				0.028136849403381348,
				-0.5864773988723755
			],
			"type":"VEC3"
		},
		{
			"bufferView":1,
			"componentType":5126,
			"count":597,
			"type":"VEC3"
		},
		{
			"bufferView":2,
			"componentType":5126,
			"count":597,
			"type":"VEC2"
		},
		{
			"bufferView":3,
			"componentType":5123,
			"count":597,
			"type":"SCALAR"
		}
	],
	"bufferViews":[
		{
			"buffer":0,
			"byteLength":7164,
			"byteOffset":0,
			"target":34962
		},
		{
			"buffer":0,
			"byteLength":7164,
			"byteOffset":7164,
			"target":34962
		},
		{
			"buffer":0,
			"byteLength":4776,
			"byteOffset":14328,
			"target":34962
		},
		{
			"buffer":0,
			"byteLength":1194,
			"byteOffset":19104,
			"target":34963
		}
	],
	"samplers":[
		{
			"magFilter":9729,
			"minFilter":9987
		}
	],
	"buffers":[
		{
			"byteLength":20300,
			"uri":"veg_fern_1_lod.bin"
		}
	]
}
