{
	"asset":{
		"generator":"Khronos glTF Blender I/O v5.2.39",
		"version":"2.0"
	},
	"scene":0,
	"scenes":[
		{
			"extras":{
				"uuid":"fe724002-1b06-4b77-bd3b-69e6411524f5",
				"assets reported":{}
			},
			"name":"THE MIST VILLAGE",
			"nodes":[
				0
			]
		}
	],
	"nodes":[
		{
			"mesh":0,
			"name":"asset \u00b7 hedgerow bush 0"
		}
	],
	"materials":[
		{
			"doubleSided":true,
			"name":"Hedgerow",
			"pbrMetallicRoughness":{
				"baseColorTexture":{
					"index":0
				},
				"metallicFactor":0,
				"roughnessFactor":0.6000000238418579
			}
		}
	],
	"meshes":[
		{
			"name":"asset \u00b7 hedgerow bush 0",
			"primitives":[
				{
					"attributes":{
						"POSITION":0,
						"NORMAL":1,
						"TEXCOORD_0":2
					},
					"indices":3,
					"material":0
				}
			]
		}
	],
	"textures":[
		{
			"sampler":0,
			"source":0
		}
	],
	"images":[
		{
			"mimeType":"image/jpeg",
			"name":"hedgerow_base",
			"uri":"textures/hedgerow_base.jpg"
		}
	],
	"accessors":[
		{
			"bufferView":0,
			"componentType":5126,
			"count":2968,
			"max":[
				1.26875901222229,
				1.8931654691696167,
				1.4706084728240967
			],
			"min":[
				-1.3486106395721436,
				0.00878305733203888,
				-1.236541748046875
			],
			"type":"VEC3"
		},
		{
			"bufferView":1,
			"componentType":5126,
			"count":2968,
			"type":"VEC3"
		},
		{
			"bufferView":2,
			"componentType":5126,
			"count":2968,
			"type":"VEC2"
		},
		{
			"bufferView":3,
			"componentType":5123,
			"count":4236,
			"type":"SCALAR"
		}
	],
	"bufferViews":[
		{
			"buffer":0,
			"byteLength":35616,
			"byteOffset":0,
			"target":34962
		},
		{
			"buffer":0,
			"byteLength":35616,
			"byteOffset":35616,
			"target":34962
		},
		{
			"buffer":0,
			"byteLength":23744,
			"byteOffset":71232,
			"target":34962
		},
		{
			"buffer":0,
			"byteLength":8472,
			"byteOffset":94976,
			"target":34963
		}
	],
	"samplers":[
		{
			"magFilter":9729,
			"minFilter":9987
		}
	],
	"buffers":[
		{
			"byteLength":103448,
			"uri":"veg_hedgerow_bush_0.bin"
		}
	]
}
