{
	"asset":{
		"generator":"Khronos glTF Blender I/O v5.2.39",
		"version":"2.0"
	},
	"scene":0,
	"scenes":[
		{
			"extras":{
				"uuid":"fe724002-1b06-4b77-bd3b-69e6411524f5",
				"assets reported":{}
			},
			"name":"THE MIST VILLAGE",
			"nodes":[
				0
			]
		}
	],
	"nodes":[
		{
			"mesh":0,
			"name":"asset \u00b7 shrub 2"
		}
	],
	"materials":[
		{
			"doubleSided":true,
			"name":"Native Shrub",
			"pbrMetallicRoughness":{
				"baseColorTexture":{
					"index":0
				},
				"metallicFactor":0,
				"roughnessFactor":0.6000000238418579
			}
		}
	],
	"meshes":[
		{
			"name":"asset \u00b7 shrub 2",
			"primitives":[
				{
					"attributes":{
						"POSITION":0,
						"NORMAL":1,
						"TEXCOORD_0":2
					},
					"indices":3,
					"material":0
				}
			]
		}
	],
	"textures":[
		{
			"sampler":0,
			"source":0
		}
	],
	"images":[
		{
			"mimeType":"image/jpeg",
			"name":"native_shrub_base",
			"uri":"textures/native_shrub_base.jpg"
		}
	],
	"accessors":[
		{
			"bufferView":0,
			"componentType":5126,
			"count":2884,
			"max":[
				0.7592111825942993,
				0.9626964926719666,
				0.47884470224380493
			],
			"min":[
				-0.8811747431755066,
				-0.06771624088287354,
				-0.9135684967041016
			],
			"type":"VEC3"
		},
		{
			"bufferView":1,
			"componentType":5126,
			"count":2884,
			"type":"VEC3"
		},
		{
			"bufferView":2,
			"componentType":5126,
			"count":2884,
			"type":"VEC2"
		},
		{
			"bufferView":3,
			"componentType":5123,
			"count":4236,
			"type":"SCALAR"
		}
	],
	"bufferViews":[
		{
			"buffer":0,
			"byteLength":34608,
			"byteOffset":0,
			"target":34962
		},
		{
			"buffer":0,
			"byteLength":34608,
			"byteOffset":34608,
			"target":34962
		},
		{
			"buffer":0,
			"byteLength":23072,
			"byteOffset":69216,
			"target":34962
		},
		{
			"buffer":0,
			"byteLength":8472,
			"byteOffset":92288,
			"target":34963
		}
	],
	"samplers":[
		{
			"magFilter":9729,
			"minFilter":9987
		}
	],
	"buffers":[
		{
			"byteLength":100760,
			"uri":"veg_shrub_2.bin"
		}
	]
}
