{
	"asset":{
		"generator":"Khronos glTF Blender I/O v5.2.39",
		"version":"2.0"
	},
	"scene":0,
	"scenes":[
		{
			"extras":{
				"uuid":"fe724002-1b06-4b77-bd3b-69e6411524f5",
				"assets reported":{}
			},
			"name":"THE MIST VILLAGE",
			"nodes":[
				0
			]
		}
	],
	"nodes":[
		{
			"mesh":0,
			"name":"asset \u00b7 hydrangea pink"
		}
	],
	"materials":[
		{
			"doubleSided":true,
			"name":"Hydrangea Pink",
			"pbrMetallicRoughness":{
				"baseColorTexture":{
					"index":0
				},
				"metallicFactor":0,
				"roughnessFactor":0.6000000238418579
			}
		}
	],
	"meshes":[
		{
			"name":"asset \u00b7 hydrangea pink",
			"primitives":[
				{
					"attributes":{
						"POSITION":0,
						"NORMAL":1,
						"TEXCOORD_0":2
					},
					"indices":3,
					"material":0
				}
			]
		}
	],
	"textures":[
		{
			"sampler":0,
			"source":0
		}
	],
	"images":[
		{
			"mimeType":"image/jpeg",
			"name":"hydrangea_pink_base",
			"uri":"textures/hydrangea_pink_base.jpg"
		}
	],
	"accessors":[
		{
			"bufferView":0,
			"componentType":5126,
			"count":2882,
			"max":[
				0.6489062309265137,
				0.7330634593963623,
				0.4493201673030853
			],
			"min":[
				-0.6227516531944275,
				-0.013693120330572128,
				-0.50030517578125
			],
			"type":"VEC3"
		},
		{
			"bufferView":1,
			"componentType":5126,
			"count":2882,
			"type":"VEC3"
		},
		{
			"bufferView":2,
			"componentType":5126,
			"count":2882,
			"type":"VEC2"
		},
		{
			"bufferView":3,
			"componentType":5123,
			"count":4236,
			"type":"SCALAR"
		}
	],
	"bufferViews":[
		{
			"buffer":0,
			"byteLength":34584,
			"byteOffset":0,
			"target":34962
		},
		{
			"buffer":0,
			"byteLength":34584,
			"byteOffset":34584,
			"target":34962
		},
		{
			"buffer":0,
			"byteLength":23056,
			"byteOffset":69168,
			"target":34962
		},
		{
			"buffer":0,
			"byteLength":8472,
			"byteOffset":92224,
			"target":34963
		}
	],
	"samplers":[
		{
			"magFilter":9729,
			"minFilter":9987
		}
	],
	"buffers":[
		{
			"byteLength":100696,
			"uri":"veg_hydrangea_pink.bin"
		}
	]
}
