{
	"asset":{
		"generator":"Khronos glTF Blender I/O v5.2.39",
		"version":"2.0"
	},
	"scene":0,
	"scenes":[
		{
			"extras":{
				"uuid":"fe724002-1b06-4b77-bd3b-69e6411524f5",
				"assets reported":{}
			},
			"name":"THE MIST VILLAGE",
			"nodes":[
				0
			]
		}
	],
	"nodes":[
		{
			"mesh":0,
			"name":"asset \u00b7 cypress 1"
		}
	],
	"materials":[
		{
			"name":"Tree Bark",
			"normalTexture":{
				"index":0
			},
			"pbrMetallicRoughness":{
				"baseColorTexture":{
					"index":1
				},
				"metallicFactor":0,
				"roughnessFactor":0.949999988079071
			}
		},
		{
			"doubleSided":true,
			"name":"Cypress Foliage",
			"pbrMetallicRoughness":{
				"baseColorTexture":{
					"index":2
				},
				"metallicFactor":0,
				"roughnessFactor":0.6000000238418579
			}
		}
	],
	"meshes":[
		{
			"name":"asset \u00b7 cypress 1",
			"primitives":[
				{
					"attributes":{
						"POSITION":0,
						"NORMAL":1,
						"TEXCOORD_0":2
					},
					"indices":3,
					"material":0
				},
				{
					"attributes":{
						"POSITION":4,
						"NORMAL":5,
						"TEXCOORD_0":6
					},
					"indices":7,
					"material":1
				}
			]
		}
	],
	"textures":[
		{
			"sampler":0,
			"source":0
		},
		{
			"sampler":0,
			"source":1
		},
		{
			"sampler":0,
			"source":2
		}
	],
	"images":[
		{
			"mimeType":"image/png",
			"name":"tree_bark_normal",
			"uri":"textures/tree_bark_normal.png"
		},
		{
			"mimeType":"image/jpeg",
			"name":"tree_bark_base",
			"uri":"textures/tree_bark_base.jpg"
		},
		{
			"mimeType":"image/jpeg",
			"name":"cypress_foliage_base",
			"uri":"textures/cypress_foliage_base.jpg"
		}
	],
	"accessors":[
		{
			"bufferView":0,
			"componentType":5126,
			"count":6,
			"max":[
				0.05121318995952606,
				10.44692611694336,
				0.19606603682041168
			],
			"min":[
				-0.05121318995952606,
				-0.30000001192092896,
				-0.19606603682041168
			],
			"type":"VEC3"
		},
		{
			"bufferView":1,
			"componentType":5126,
			"count":6,
			"type":"VEC3"
		},
		{
			"bufferView":2,
			"componentType":5126,
			"count":6,
			"type":"VEC2"
		},
		{
			"bufferView":3,
			"componentType":5123,
			"count":6,
			"type":"SCALAR"
		},
		{
			"bufferView":4,
			"componentType":5126,
			"count":594,
			"max":[
				1.360583782196045,
				10.796931266784668,
				1.2333027124404907
			],
			"min":[
				-1.3680949211120605,
				0.8343501091003418,
				-1.4811346530914307
			],
			"type":"VEC3"
		},
		{
			"bufferView":5,
			"componentType":5126,
			"count":594,
			"type":"VEC3"
		},
		{
			"bufferView":6,
			"componentType":5126,
			"count":594,
			"type":"VEC2"
		},
		{
			"bufferView":7,
			"componentType":5123,
			"count":594,
			"type":"SCALAR"
		}
	],
	"bufferViews":[
		{
			"buffer":0,
			"byteLength":72,
			"byteOffset":0,
			"target":34962
		},
		{
			"buffer":0,
			"byteLength":72,
			"byteOffset":72,
			"target":34962
		},
		{
			"buffer":0,
			"byteLength":48,
			"byteOffset":144,
			"target":34962
		},
		{
			"buffer":0,
			"byteLength":12,
			"byteOffset":192,
			"target":34963
		},
		{
			"buffer":0,
			"byteLength":7128,
			"byteOffset":204,
			"target":34962
		},
		{
			"buffer":0,
			"byteLength":7128,
			"byteOffset":7332,
			"target":34962
		},
		{
			"buffer":0,
			"byteLength":4752,
			"byteOffset":14460,
			"target":34962
		},
		{
			"buffer":0,
			"byteLength":1188,
			"byteOffset":19212,
			"target":34963
		}
	],
	"samplers":[
		{
			"magFilter":9729,
			"minFilter":9987
		}
	],
	"buffers":[
		{
			"byteLength":20400,
			"uri":"veg_cypress_1_lod.bin"
		}
	]
}
