{
	"asset":{
		"generator":"Khronos glTF Blender I/O v5.2.39",
		"version":"2.0"
	},
	"scene":0,
	"scenes":[
		{
			"extras":{
				"uuid":"fe724002-1b06-4b77-bd3b-69e6411524f5",
				"assets reported":{}
			},
			"name":"THE MIST VILLAGE",
			"nodes":[
				0
			]
		}
	],
	"nodes":[
		{
			"mesh":0,
			"name":"asset \u00b7 hedgerow bush 1"
		}
	],
	"materials":[
		{
			"doubleSided":true,
			"name":"Hedgerow",
			"pbrMetallicRoughness":{
				"baseColorTexture":{
					"index":0
				},
				"metallicFactor":0,
				"roughnessFactor":0.6000000238418579
			}
		}
	],
	"meshes":[
		{
			"name":"asset \u00b7 hedgerow bush 1",
			"primitives":[
				{
					"attributes":{
						"POSITION":0,
						"NORMAL":1,
						"TEXCOORD_0":2
					},
					"indices":3,
					"material":0
				}
			]
		}
	],
	"textures":[
		{
			"sampler":0,
			"source":0
		}
	],
	"images":[
		{
			"mimeType":"image/jpeg",
			"name":"hedgerow_base",
			"uri":"textures/hedgerow_base.jpg"
		}
	],
	"accessors":[
		{
			"bufferView":0,
			"componentType":5126,
			"count":524,
			"max":[
				1.184401512145996,
				1.7141224145889282,
				1.1835262775421143
			],
			"min":[
				-1.3382641077041626,
				0.04554539918899536,
				-1.292707085609436
			],
			"type":"VEC3"
		},
		{
			"bufferView":1,
			"componentType":5126,
			"count":524,
			"type":"VEC3"
		},
		{
			"bufferView":2,
			"componentType":5126,
			"count":524,
			"type":"VEC2"
		},
		{
			"bufferView":3,
			"componentType":5123,
			"count":600,
			"type":"SCALAR"
		}
	],
	"bufferViews":[
		{
			"buffer":0,
			"byteLength":6288,
			"byteOffset":0,
			"target":34962
		},
		{
			"buffer":0,
			"byteLength":6288,
			"byteOffset":6288,
			"target":34962
		},
		{
			"buffer":0,
			"byteLength":4192,
			"byteOffset":12576,
			"target":34962
		},
		{
			"buffer":0,
			"byteLength":1200,
			"byteOffset":16768,
			"target":34963
		}
	],
	"samplers":[
		{
			"magFilter":9729,
			"minFilter":9987
		}
	],
	"buffers":[
		{
			"byteLength":17968,
			"uri":"veg_hedgerow_bush_1_lod.bin"
		}
	]
}
