{
	"asset":{
		"generator":"Khronos glTF Blender I/O v5.2.39",
		"version":"2.0"
	},
	"scene":0,
	"scenes":[
		{
			"extras":{
				"uuid":"fe724002-1b06-4b77-bd3b-69e6411524f5",
				"assets reported":{}
			},
			"name":"THE MIST VILLAGE",
			"nodes":[
				0
			]
		}
	],
	"nodes":[
		{
			"mesh":0,
			"name":"asset \u00b7 shrub 1"
		}
	],
	"materials":[
		{
			"doubleSided":true,
			"name":"Native Shrub",
			"pbrMetallicRoughness":{
				"baseColorTexture":{
					"index":0
				},
				"metallicFactor":0,
				"roughnessFactor":0.6000000238418579
			}
		}
	],
	"meshes":[
		{
			"name":"asset \u00b7 shrub 1",
			"primitives":[
				{
					"attributes":{
						"POSITION":0,
						"NORMAL":1,
						"TEXCOORD_0":2
					},
					"indices":3,
					"material":0
				}
			]
		}
	],
	"textures":[
		{
			"sampler":0,
			"source":0
		}
	],
	"images":[
		{
			"mimeType":"image/jpeg",
			"name":"native_shrub_base",
			"uri":"textures/native_shrub_base.jpg"
		}
	],
	"accessors":[
		{
			"bufferView":0,
			"componentType":5126,
			"count":2892,
			"max":[
				0.5490570664405823,
				0.7234426736831665,
				0.37983036041259766
			],
			"min":[
				-0.5390377640724182,
				-0.09496437758207321,
				-0.6936550140380859
			],
			"type":"VEC3"
		},
		{
			"bufferView":1,
			"componentType":5126,
			"count":2892,
			"type":"VEC3"
		},
		{
			"bufferView":2,
			"componentType":5126,
			"count":2892,
			"type":"VEC2"
		},
		{
			"bufferView":3,
			"componentType":5123,
			"count":4236,
			"type":"SCALAR"
		}
	],
	"bufferViews":[
		{
			"buffer":0,
			"byteLength":34704,
			"byteOffset":0,
			"target":34962
		},
		{
			"buffer":0,
			"byteLength":34704,
			"byteOffset":34704,
			"target":34962
		},
		{
			"buffer":0,
			"byteLength":23136,
			"byteOffset":69408,
			"target":34962
		},
		{
			"buffer":0,
			"byteLength":8472,
			"byteOffset":92544,
			"target":34963
		}
	],
	"samplers":[
		{
			"magFilter":9729,
			"minFilter":9987
		}
	],
	"buffers":[
		{
			"byteLength":101016,
			"uri":"veg_shrub_1.bin"
		}
	]
}
