{
	"asset":{
		"generator":"Khronos glTF Blender I/O v5.2.39",
		"version":"2.0"
	},
	"scene":0,
	"scenes":[
		{
			"extras":{
				"uuid":"fe724002-1b06-4b77-bd3b-69e6411524f5",
				"assets reported":{}
			},
			"name":"THE MIST VILLAGE",
			"nodes":[
				0
			]
		}
	],
	"nodes":[
		{
			"mesh":0,
			"name":"asset \u00b7 hedgerow bush 1"
		}
	],
	"materials":[
		{
			"doubleSided":true,
			"name":"Hedgerow",
			"pbrMetallicRoughness":{
				"baseColorTexture":{
					"index":0
				},
				"metallicFactor":0,
				"roughnessFactor":0.6000000238418579
			}
		}
	],
	"meshes":[
		{
			"name":"asset \u00b7 hedgerow bush 1",
			"primitives":[
				{
					"attributes":{
						"POSITION":0,
						"NORMAL":1,
						"TEXCOORD_0":2
					},
					"indices":3,
					"material":0
				}
			]
		}
	],
	"textures":[
		{
			"sampler":0,
			"source":0
		}
	],
	"images":[
		{
			"mimeType":"image/jpeg",
			"name":"hedgerow_base",
			"uri":"textures/hedgerow_base.jpg"
		}
	],
	"accessors":[
		{
			"bufferView":0,
			"componentType":5126,
			"count":2960,
			"max":[
				1.403169870376587,
				1.7141224145889282,
				1.3655942678451538
			],
			"min":[
				-1.400323510169983,
				-0.03844302147626877,
				-1.372644066810608
			],
			"type":"VEC3"
		},
		{
			"bufferView":1,
			"componentType":5126,
			"count":2960,
			"type":"VEC3"
		},
		{
			"bufferView":2,
			"componentType":5126,
			"count":2960,
			"type":"VEC2"
		},
		{
			"bufferView":3,
			"componentType":5123,
			"count":4236,
			"type":"SCALAR"
		}
	],
	"bufferViews":[
		{
			"buffer":0,
			"byteLength":35520,
			"byteOffset":0,
			"target":34962
		},
		{
			"buffer":0,
			"byteLength":35520,
			"byteOffset":35520,
			"target":34962
		},
		{
			"buffer":0,
			"byteLength":23680,
			"byteOffset":71040,
			"target":34962
		},
		{
			"buffer":0,
			"byteLength":8472,
			"byteOffset":94720,
			"target":34963
		}
	],
	"samplers":[
		{
			"magFilter":9729,
			"minFilter":9987
		}
	],
	"buffers":[
		{
			"byteLength":103192,
			"uri":"veg_hedgerow_bush_1.bin"
		}
	]
}
