{
	"asset":{
		"generator":"Khronos glTF Blender I/O v5.2.39",
		"version":"2.0"
	},
	"scene":0,
	"scenes":[
		{
			"extras":{
				"uuid":"fe724002-1b06-4b77-bd3b-69e6411524f5",
				"assets reported":{}
			},
			"name":"THE MIST VILLAGE",
			"nodes":[
				0
			]
		}
	],
	"nodes":[
		{
			"mesh":0,
			"name":"asset \u00b7 shola evergreen 1"
		}
	],
	"materials":[
		{
			"name":"Tree Bark",
			"normalTexture":{
				"index":0
			},
			"pbrMetallicRoughness":{
				"baseColorTexture":{
					"index":1
				},
				"metallicFactor":0,
				"roughnessFactor":0.949999988079071
			}
		},
		{
			"doubleSided":true,
			"name":"Shola Evergreen Leaves",
			"pbrMetallicRoughness":{
				"baseColorTexture":{
					"index":2
				},
				"metallicFactor":0,
				"roughnessFactor":0.6000000238418579
			}
		}
	],
	"meshes":[
		{
			"name":"asset \u00b7 shola evergreen 1",
			"primitives":[
				{
					"attributes":{
						"POSITION":0,
						"NORMAL":1,
						"TEXCOORD_0":2
					},
					"indices":3,
					"material":0
				},
				{
					"attributes":{
						"POSITION":4,
						"NORMAL":5,
						"TEXCOORD_0":6
					},
					"indices":7,
					"material":1
				}
			]
		}
	],
	"textures":[
		{
			"sampler":0,
			"source":0
		},
		{
			"sampler":0,
			"source":1
		},
		{
			"sampler":0,
			"source":2
		}
	],
	"images":[
		{
			"mimeType":"image/png",
			"name":"tree_bark_normal",
			"uri":"textures/tree_bark_normal.png"
		},
		{
			"mimeType":"image/jpeg",
			"name":"tree_bark_base",
			"uri":"textures/tree_bark_base.jpg"
		},
		{
			"mimeType":"image/jpeg",
			"name":"shola_evergreen_leaves_base",
			"uri":"textures/shola_evergreen_leaves_base.jpg"
		}
	],
	"accessors":[
		{
			"bufferView":0,
			"componentType":5126,
			"count":42,
			"max":[
				1.3589175939559937,
				4.970945358276367,
				1.3958141803741455
			],
			"min":[
				-1.182151436805725,
				-0.30000001192092896,
				-1.4197361469268799
			],
			"type":"VEC3"
		},
		{
			"bufferView":1,
			"componentType":5126,
			"count":42,
			"type":"VEC3"
		},
		{
			"bufferView":2,
			"componentType":5126,
			"count":42,
			"type":"VEC2"
		},
		{
			"bufferView":3,
			"componentType":5123,
			"count":42,
			"type":"SCALAR"
		},
		{
			"bufferView":4,
			"componentType":5126,
			"count":7898,
			"max":[
				2.9892523288726807,
				6.880568027496338,
				3.0595638751983643
			],
			"min":[
				-3.096461057662964,
				2.2377710342407227,
				-2.7924814224243164
			],
			"type":"VEC3"
		},
		{
			"bufferView":5,
			"componentType":5126,
			"count":7898,
			"type":"VEC3"
		},
		{
			"bufferView":6,
			"componentType":5126,
			"count":7898,
			"type":"VEC2"
		},
		{
			"bufferView":7,
			"componentType":5123,
			"count":11232,
			"type":"SCALAR"
		}
	],
	"bufferViews":[
		{
			"buffer":0,
			"byteLength":504,
			"byteOffset":0,
			"target":34962
		},
		{
			"buffer":0,
			"byteLength":504,
			"byteOffset":504,
			"target":34962
		},
		{
			"buffer":0,
			"byteLength":336,
			"byteOffset":1008,
			"target":34962
		},
		{
			"buffer":0,
			"byteLength":84,
			"byteOffset":1344,
			"target":34963
		},
		{
			"buffer":0,
			"byteLength":94776,
			"byteOffset":1428,
			"target":34962
		},
		{
			"buffer":0,
			"byteLength":94776,
			"byteOffset":96204,
			"target":34962
		},
		{
			"buffer":0,
			"byteLength":63184,
			"byteOffset":190980,
			"target":34962
		},
		{
			"buffer":0,
			"byteLength":22464,
			"byteOffset":254164,
			"target":34963
		}
	],
	"samplers":[
		{
			"magFilter":9729,
			"minFilter":9987
		}
	],
	"buffers":[
		{
			"byteLength":276628,
			"uri":"veg_shola_evergreen_1.bin"
		}
	]
}
