{
	"asset":{
		"generator":"Khronos glTF Blender I/O v5.2.39",
		"version":"2.0"
	},
	"scene":0,
	"scenes":[
		{
			"extras":{
				"uuid":"fe724002-1b06-4b77-bd3b-69e6411524f5",
				"assets reported":{}
			},
			"name":"THE MIST VILLAGE",
			"nodes":[
				0
			]
		}
	],
	"nodes":[
		{
			"mesh":0,
			"name":"asset \u00b7 cypress 2"
		}
	],
	"materials":[
		{
			"name":"Tree Bark",
			"normalTexture":{
				"index":0
			},
			"pbrMetallicRoughness":{
				"baseColorTexture":{
					"index":1
				},
				"metallicFactor":0,
				"roughnessFactor":0.949999988079071
			}
		},
		{
			"doubleSided":true,
			"name":"Cypress Foliage",
			"pbrMetallicRoughness":{
				"baseColorTexture":{
					"index":2
				},
				"metallicFactor":0,
				"roughnessFactor":0.6000000238418579
			}
		}
	],
	"meshes":[
		{
			"name":"asset \u00b7 cypress 2",
			"primitives":[
				{
					"attributes":{
						"POSITION":0,
						"NORMAL":1,
						"TEXCOORD_0":2
					},
					"indices":3,
					"material":0
				},
				{
					"attributes":{
						"POSITION":4,
						"NORMAL":5,
						"TEXCOORD_0":6
					},
					"indices":7,
					"material":1
				}
			]
		}
	],
	"textures":[
		{
			"sampler":0,
			"source":0
		},
		{
			"sampler":0,
			"source":1
		},
		{
			"sampler":0,
			"source":2
		}
	],
	"images":[
		{
			"mimeType":"image/png",
			"name":"tree_bark_normal",
			"uri":"textures/tree_bark_normal.png"
		},
		{
			"mimeType":"image/jpeg",
			"name":"tree_bark_base",
			"uri":"textures/tree_bark_base.jpg"
		},
		{
			"mimeType":"image/jpeg",
			"name":"cypress_foliage_base",
			"uri":"textures/cypress_foliage_base.jpg"
		}
	],
	"accessors":[
		{
			"bufferView":0,
			"componentType":5126,
			"count":12,
			"max":[
				0.19606603682041168,
				9.519011497497559,
				0.17485283315181732
			],
			"min":[
				-0.19606603682041168,
				-0.30000001192092896,
				-0.17485283315181732
			],
			"type":"VEC3"
		},
		{
			"bufferView":1,
			"componentType":5126,
			"count":12,
			"type":"VEC3"
		},
		{
			"bufferView":2,
			"componentType":5126,
			"count":12,
			"type":"VEC2"
		},
		{
			"bufferView":3,
			"componentType":5123,
			"count":12,
			"type":"SCALAR"
		},
		{
			"bufferView":4,
			"componentType":5126,
			"count":9639,
			"max":[
				1.6280124187469482,
				10.196035385131836,
				1.631394863128662
			],
			"min":[
				-1.7385480403900146,
				0.6008435487747192,
				-1.7544786930084229
			],
			"type":"VEC3"
		},
		{
			"bufferView":5,
			"componentType":5126,
			"count":9639,
			"type":"VEC3"
		},
		{
			"bufferView":6,
			"componentType":5126,
			"count":9639,
			"type":"VEC2"
		},
		{
			"bufferView":7,
			"componentType":5123,
			"count":13425,
			"type":"SCALAR"
		}
	],
	"bufferViews":[
		{
			"buffer":0,
			"byteLength":144,
			"byteOffset":0,
			"target":34962
		},
		{
			"buffer":0,
			"byteLength":144,
			"byteOffset":144,
			"target":34962
		},
		{
			"buffer":0,
			"byteLength":96,
			"byteOffset":288,
			"target":34962
		},
		{
			"buffer":0,
			"byteLength":24,
			"byteOffset":384,
			"target":34963
		},
		{
			"buffer":0,
			"byteLength":115668,
			"byteOffset":408,
			"target":34962
		},
		{
			"buffer":0,
			"byteLength":115668,
			"byteOffset":116076,
			"target":34962
		},
		{
			"buffer":0,
			"byteLength":77112,
			"byteOffset":231744,
			"target":34962
		},
		{
			"buffer":0,
			"byteLength":26850,
			"byteOffset":308856,
			"target":34963
		}
	],
	"samplers":[
		{
			"magFilter":9729,
			"minFilter":9987
		}
	],
	"buffers":[
		{
			"byteLength":335708,
			"uri":"veg_cypress_2.bin"
		}
	]
}
