{
	"asset":{
		"generator":"Khronos glTF Blender I/O v5.2.39",
		"version":"2.0"
	},
	"scene":0,
	"scenes":[
		{
			"extras":{
				"uuid":"fe724002-1b06-4b77-bd3b-69e6411524f5",
				"assets reported":{}
			},
			"name":"THE MIST VILLAGE",
			"nodes":[
				0
			]
		}
	],
	"nodes":[
		{
			"mesh":0,
			"name":"asset \u00b7 fern 1"
		}
	],
	"materials":[
		{
			"doubleSided":true,
			"name":"Tree Fern + Fern Fronds",
			"pbrMetallicRoughness":{
				"baseColorTexture":{
					"index":0
				},
				"metallicFactor":0,
				"roughnessFactor":0.6000000238418579
			}
		}
	],
	"meshes":[
		{
			"name":"asset \u00b7 fern 1",
			"primitives":[
				{
					"attributes":{
						"POSITION":0,
						"NORMAL":1,
						"TEXCOORD_0":2
					},
					"indices":3,
					"material":0
				}
			]
		}
	],
	"textures":[
		{
			"sampler":0,
			"source":0
		}
	],
	"images":[
		{
			"mimeType":"image/jpeg",
			"name":"tree_fern_fern_fronds_base",
			"uri":"textures/tree_fern_fern_fronds_base.jpg"
		}
	],
	"accessors":[
		{
			"bufferView":0,
			"componentType":5126,
			"count":1980,
			"max":[
				0.654269814491272,
				0.5885043740272522,
				0.6788297891616821
			],
			"min":[
				-0.839397132396698,
				0,
				-0.7566072940826416
			],
			"type":"VEC3"
		},
		{
			"bufferView":1,
			"componentType":5126,
			"count":1980,
			"type":"VEC3"
		},
		{
			"bufferView":2,
			"componentType":5126,
			"count":1980,
			"type":"VEC2"
		},
		{
			"bufferView":3,
			"componentType":5123,
			"count":2376,
			"type":"SCALAR"
		}
	],
	"bufferViews":[
		{
			"buffer":0,
			"byteLength":23760,
			"byteOffset":0,
			"target":34962
		},
		{
			"buffer":0,
			"byteLength":23760,
			"byteOffset":23760,
			"target":34962
		},
		{
			"buffer":0,
			"byteLength":15840,
			"byteOffset":47520,
			"target":34962
		},
		{
			"buffer":0,
			"byteLength":4752,
			"byteOffset":63360,
			"target":34963
		}
	],
	"samplers":[
		{
			"magFilter":9729,
			"minFilter":9987
		}
	],
	"buffers":[
		{
			"byteLength":68112,
			"uri":"veg_fern_1.bin"
		}
	]
}
