{
	"asset":{
		"generator":"Khronos glTF Blender I/O v5.2.39",
		"version":"2.0"
	},
	"scene":0,
	"scenes":[
		{
			"extras":{
				"uuid":"fe724002-1b06-4b77-bd3b-69e6411524f5",
				"assets reported":{}
			},
			"name":"THE MIST VILLAGE",
			"nodes":[
				0
			]
		}
	],
	"nodes":[
		{
			"mesh":0,
			"name":"asset \u00b7 shola evergreen 3"
		}
	],
	"materials":[
		{
			"name":"Tree Bark",
			"normalTexture":{
				"index":0
			},
			"pbrMetallicRoughness":{
				"baseColorTexture":{
					"index":1
				},
				"metallicFactor":0,
				"roughnessFactor":0.949999988079071
			}
		},
		{
			"doubleSided":true,
			"name":"Shola Evergreen Leaves",
			"pbrMetallicRoughness":{
				"baseColorTexture":{
					"index":2
				},
				"metallicFactor":0,
				"roughnessFactor":0.6000000238418579
			}
		}
	],
	"meshes":[
		{
			"name":"asset \u00b7 shola evergreen 3",
			"primitives":[
				{
					"attributes":{
						"POSITION":0,
						"NORMAL":1,
						"TEXCOORD_0":2
					},
					"indices":3,
					"material":0
				},
				{
					"attributes":{
						"POSITION":4,
						"NORMAL":5,
						"TEXCOORD_0":6
					},
					"indices":7,
					"material":1
				}
			]
		}
	],
	"textures":[
		{
			"sampler":0,
			"source":0
		},
		{
			"sampler":0,
			"source":1
		},
		{
			"sampler":0,
			"source":2
		}
	],
	"images":[
		{
			"mimeType":"image/png",
			"name":"tree_bark_normal",
			"uri":"textures/tree_bark_normal.png"
		},
		{
			"mimeType":"image/jpeg",
			"name":"tree_bark_base",
			"uri":"textures/tree_bark_base.jpg"
		},
		{
			"mimeType":"image/jpeg",
			"name":"shola_evergreen_leaves_base",
			"uri":"textures/shola_evergreen_leaves_base.jpg"
		}
	],
	"accessors":[
		{
			"bufferView":0,
			"componentType":5126,
			"count":42,
			"max":[
				1.5172710418701172,
				5.380282402038574,
				1.3243426084518433
			],
			"min":[
				-2.0613856315612793,
				-0.31072694063186646,
				-1.5089480876922607
			],
			"type":"VEC3"
		},
		{
			"bufferView":1,
			"componentType":5126,
			"count":42,
			"type":"VEC3"
		},
		{
			"bufferView":2,
			"componentType":5126,
			"count":42,
			"type":"VEC2"
		},
		{
			"bufferView":3,
			"componentType":5123,
			"count":42,
			"type":"SCALAR"
		},
		{
			"bufferView":4,
			"componentType":5126,
			"count":558,
			"max":[
				2.7184014320373535,
				6.843097686767578,
				3.2538223266601562
			],
			"min":[
				-3.0617659091949463,
				3.3194010257720947,
				-2.5530385971069336
			],
			"type":"VEC3"
		},
		{
			"bufferView":5,
			"componentType":5126,
			"count":558,
			"type":"VEC3"
		},
		{
			"bufferView":6,
			"componentType":5126,
			"count":558,
			"type":"VEC2"
		},
		{
			"bufferView":7,
			"componentType":5123,
			"count":558,
			"type":"SCALAR"
		}
	],
	"bufferViews":[
		{
			"buffer":0,
			"byteLength":504,
			"byteOffset":0,
			"target":34962
		},
		{
			"buffer":0,
			"byteLength":504,
			"byteOffset":504,
			"target":34962
		},
		{
			"buffer":0,
			"byteLength":336,
			"byteOffset":1008,
			"target":34962
		},
		{
			"buffer":0,
			"byteLength":84,
			"byteOffset":1344,
			"target":34963
		},
		{
			"buffer":0,
			"byteLength":6696,
			"byteOffset":1428,
			"target":34962
		},
		{
			"buffer":0,
			"byteLength":6696,
			"byteOffset":8124,
			"target":34962
		},
		{
			"buffer":0,
			"byteLength":4464,
			"byteOffset":14820,
			"target":34962
		},
		{
			"buffer":0,
			"byteLength":1116,
			"byteOffset":19284,
			"target":34963
		}
	],
	"samplers":[
		{
			"magFilter":9729,
			"minFilter":9987
		}
	],
	"buffers":[
		{
			"byteLength":20400,
			"uri":"veg_shola_evergreen_3_lod.bin"
		}
	]
}
