{
	"asset":{
		"generator":"Khronos glTF Blender I/O v5.2.39",
		"version":"2.0"
	},
	"scene":0,
	"scenes":[
		{
			"extras":{
				"uuid":"fe724002-1b06-4b77-bd3b-69e6411524f5",
				"assets reported":{}
			},
			"name":"THE MIST VILLAGE",
			"nodes":[
				0
			]
		}
	],
	"nodes":[
		{
			"mesh":0,
			"name":"asset \u00b7 hydrangea blue"
		}
	],
	"materials":[
		{
			"doubleSided":true,
			"name":"Hydrangea",
			"pbrMetallicRoughness":{
				"baseColorTexture":{
					"index":0
				},
				"metallicFactor":0,
				"roughnessFactor":0.6000000238418579
			}
		}
	],
	"meshes":[
		{
			"name":"asset \u00b7 hydrangea blue",
			"primitives":[
				{
					"attributes":{
						"POSITION":0,
						"NORMAL":1,
						"TEXCOORD_0":2
					},
					"indices":3,
					"material":0
				}
			]
		}
	],
	"textures":[
		{
			"sampler":0,
			"source":0
		}
	],
	"images":[
		{
			"mimeType":"image/jpeg",
			"name":"hydrangea_base",
			"uri":"textures/hydrangea_base.jpg"
		}
	],
	"accessors":[
		{
			"bufferView":0,
			"componentType":5126,
			"count":2904,
			"max":[
				0.7047933340072632,
				0.7542818784713745,
				0.6236224174499512
			],
			"min":[
				-0.5620036721229553,
				-0.11564351618289948,
				-0.6330954432487488
			],
			"type":"VEC3"
		},
		{
			"bufferView":1,
			"componentType":5126,
			"count":2904,
			"type":"VEC3"
		},
		{
			"bufferView":2,
			"componentType":5126,
			"count":2904,
			"type":"VEC2"
		},
		{
			"bufferView":3,
			"componentType":5123,
			"count":4236,
			"type":"SCALAR"
		}
	],
	"bufferViews":[
		{
			"buffer":0,
			"byteLength":34848,
			"byteOffset":0,
			"target":34962
		},
		{
			"buffer":0,
			"byteLength":34848,
			"byteOffset":34848,
			"target":34962
		},
		{
			"buffer":0,
			"byteLength":23232,
			"byteOffset":69696,
			"target":34962
		},
		{
			"buffer":0,
			"byteLength":8472,
			"byteOffset":92928,
			"target":34963
		}
	],
	"samplers":[
		{
			"magFilter":9729,
			"minFilter":9987
		}
	],
	"buffers":[
		{
			"byteLength":101400,
			"uri":"veg_hydrangea_blue.bin"
		}
	]
}
