{
	"asset":{
		"generator":"Khronos glTF Blender I/O v5.2.39",
		"version":"2.0"
	},
	"scene":0,
	"scenes":[
		{
			"extras":{
				"uuid":"fe724002-1b06-4b77-bd3b-69e6411524f5",
				"assets reported":{}
			},
			"name":"THE MIST VILLAGE",
			"nodes":[
				0
			]
		}
	],
	"nodes":[
		{
			"mesh":0,
			"name":"asset \u00b7 eucalyptus 0"
		}
	],
	"materials":[
		{
			"name":"Eucalyptus Bark",
			"normalTexture":{
				"index":0
			},
			"pbrMetallicRoughness":{
				"baseColorTexture":{
					"index":1
				},
				"metallicFactor":0,
				"roughnessFactor":0.800000011920929
			}
		},
		{
			"doubleSided":true,
			"name":"Eucalyptus Leaves",
			"pbrMetallicRoughness":{
				"baseColorTexture":{
					"index":2
				},
				"metallicFactor":0,
				"roughnessFactor":0.6000000238418579
			}
		}
	],
	"meshes":[
		{
			"name":"asset \u00b7 eucalyptus 0",
			"primitives":[
				{
					"attributes":{
						"POSITION":0,
						"NORMAL":1,
						"TEXCOORD_0":2
					},
					"indices":3,
					"material":0
				},
				{
					"attributes":{
						"POSITION":4,
						"NORMAL":5,
						"TEXCOORD_0":6
					},
					"indices":7,
					"material":1
				}
			]
		}
	],
	"textures":[
		{
			"sampler":0,
			"source":0
		},
		{
			"sampler":0,
			"source":1
		},
		{
			"sampler":0,
			"source":2
		}
	],
	"images":[
		{
			"mimeType":"image/png",
			"name":"eucalyptus_bark_normal",
			"uri":"textures/eucalyptus_bark_normal.png"
		},
		{
			"mimeType":"image/jpeg",
			"name":"eucalyptus_bark_base",
			"uri":"textures/eucalyptus_bark_base.jpg"
		},
		{
			"mimeType":"image/jpeg",
			"name":"eucalyptus_leaves_base",
			"uri":"textures/eucalyptus_leaves_base.jpg"
		}
	],
	"accessors":[
		{
			"bufferView":0,
			"componentType":5126,
			"count":30,
			"max":[
				1.302350640296936,
				21.683265686035156,
				0.10893063247203827
			],
			"min":[
				-1.2432000637054443,
				-0.3024890720844269,
				-1.1770962476730347
			],
			"type":"VEC3"
		},
		{
			"bufferView":1,
			"componentType":5126,
			"count":30,
			"type":"VEC3"
		},
		{
			"bufferView":2,
			"componentType":5126,
			"count":30,
			"type":"VEC2"
		},
		{
			"bufferView":3,
			"componentType":5123,
			"count":30,
			"type":"SCALAR"
		},
		{
			"bufferView":4,
			"componentType":5126,
			"count":570,
			"max":[
				2.539543867111206,
				21.742101669311523,
				1.980798363685608
			],
			"min":[
				-2.680403232574463,
				10.37614917755127,
				-2.189993143081665
			],
			"type":"VEC3"
		},
		{
			"bufferView":5,
			"componentType":5126,
			"count":570,
			"type":"VEC3"
		},
		{
			"bufferView":6,
			"componentType":5126,
			"count":570,
			"type":"VEC2"
		},
		{
			"bufferView":7,
			"componentType":5123,
			"count":570,
			"type":"SCALAR"
		}
	],
	"bufferViews":[
		{
			"buffer":0,
			"byteLength":360,
			"byteOffset":0,
			"target":34962
		},
		{
			"buffer":0,
			"byteLength":360,
			"byteOffset":360,
			"target":34962
		},
		{
			"buffer":0,
			"byteLength":240,
			"byteOffset":720,
			"target":34962
		},
		{
			"buffer":0,
			"byteLength":60,
			"byteOffset":960,
			"target":34963
		},
		{
			"buffer":0,
			"byteLength":6840,
			"byteOffset":1020,
			"target":34962
		},
		{
			"buffer":0,
			"byteLength":6840,
			"byteOffset":7860,
			"target":34962
		},
		{
			"buffer":0,
			"byteLength":4560,
			"byteOffset":14700,
			"target":34962
		},
		{
			"buffer":0,
			"byteLength":1140,
			"byteOffset":19260,
			"target":34963
		}
	],
	"samplers":[
		{
			"magFilter":9729,
			"minFilter":9987
		}
	],
	"buffers":[
		{
			"byteLength":20400,
			"uri":"veg_eucalyptus_0_lod.bin"
		}
	]
}
