{
	"asset":{
		"generator":"Khronos glTF Blender I/O v5.2.39",
		"version":"2.0"
	},
	"scene":0,
	"scenes":[
		{
			"extras":{
				"uuid":"fe724002-1b06-4b77-bd3b-69e6411524f5",
				"assets reported":{}
			},
			"name":"THE MIST VILLAGE",
			"nodes":[
				0
			]
		}
	],
	"nodes":[
		{
			"mesh":0,
			"name":"asset \u00b7 eucalyptus 0"
		}
	],
	"materials":[
		{
			"name":"Eucalyptus Bark",
			"normalTexture":{
				"index":0
			},
			"pbrMetallicRoughness":{
				"baseColorTexture":{
					"index":1
				},
				"metallicFactor":0,
				"roughnessFactor":0.800000011920929
			}
		},
		{
			"doubleSided":true,
			"name":"Eucalyptus Leaves",
			"pbrMetallicRoughness":{
				"baseColorTexture":{
					"index":2
				},
				"metallicFactor":0,
				"roughnessFactor":0.6000000238418579
			}
		}
	],
	"meshes":[
		{
			"name":"asset \u00b7 eucalyptus 0",
			"primitives":[
				{
					"attributes":{
						"POSITION":0,
						"NORMAL":1,
						"TEXCOORD_0":2
					},
					"indices":3,
					"material":0
				},
				{
					"attributes":{
						"POSITION":4,
						"NORMAL":5,
						"TEXCOORD_0":6
					},
					"indices":7,
					"material":1
				}
			]
		}
	],
	"textures":[
		{
			"sampler":0,
			"source":0
		},
		{
			"sampler":0,
			"source":1
		},
		{
			"sampler":0,
			"source":2
		}
	],
	"images":[
		{
			"mimeType":"image/png",
			"name":"eucalyptus_bark_normal",
			"uri":"textures/eucalyptus_bark_normal.png"
		},
		{
			"mimeType":"image/jpeg",
			"name":"eucalyptus_bark_base",
			"uri":"textures/eucalyptus_bark_base.jpg"
		},
		{
			"mimeType":"image/jpeg",
			"name":"eucalyptus_leaves_base",
			"uri":"textures/eucalyptus_leaves_base.jpg"
		}
	],
	"accessors":[
		{
			"bufferView":0,
			"componentType":5126,
			"count":42,
			"max":[
				1.302350640296936,
				21.684694290161133,
				0.20553012192249298
			],
			"min":[
				-1.2432000637054443,
				-0.3024890720844269,
				-1.1770962476730347
			],
			"type":"VEC3"
		},
		{
			"bufferView":1,
			"componentType":5126,
			"count":42,
			"type":"VEC3"
		},
		{
			"bufferView":2,
			"componentType":5126,
			"count":42,
			"type":"VEC2"
		},
		{
			"bufferView":3,
			"componentType":5123,
			"count":48,
			"type":"SCALAR"
		},
		{
			"bufferView":4,
			"componentType":5126,
			"count":8036,
			"max":[
				2.770470142364502,
				22.056921005249023,
				2.34678053855896
			],
			"min":[
				-3.0071091651916504,
				10.411609649658203,
				-2.6241722106933594
			],
			"type":"VEC3"
		},
		{
			"bufferView":5,
			"componentType":5126,
			"count":8036,
			"type":"VEC3"
		},
		{
			"bufferView":6,
			"componentType":5126,
			"count":8036,
			"type":"VEC2"
		},
		{
			"bufferView":7,
			"componentType":5123,
			"count":11292,
			"type":"SCALAR"
		}
	],
	"bufferViews":[
		{
			"buffer":0,
			"byteLength":504,
			"byteOffset":0,
			"target":34962
		},
		{
			"buffer":0,
			"byteLength":504,
			"byteOffset":504,
			"target":34962
		},
		{
			"buffer":0,
			"byteLength":336,
			"byteOffset":1008,
			"target":34962
		},
		{
			"buffer":0,
			"byteLength":96,
			"byteOffset":1344,
			"target":34963
		},
		{
			"buffer":0,
			"byteLength":96432,
			"byteOffset":1440,
			"target":34962
		},
		{
			"buffer":0,
			"byteLength":96432,
			"byteOffset":97872,
			"target":34962
		},
		{
			"buffer":0,
			"byteLength":64288,
			"byteOffset":194304,
			"target":34962
		},
		{
			"buffer":0,
			"byteLength":22584,
			"byteOffset":258592,
			"target":34963
		}
	],
	"samplers":[
		{
			"magFilter":9729,
			"minFilter":9987
		}
	],
	"buffers":[
		{
			"byteLength":281176,
			"uri":"veg_eucalyptus_0.bin"
		}
	]
}
