{
	"asset":{
		"generator":"Khronos glTF Blender I/O v5.2.39",
		"version":"2.0"
	},
	"scene":0,
	"scenes":[
		{
			"extras":{
				"uuid":"fe724002-1b06-4b77-bd3b-69e6411524f5",
				"assets reported":{}
			},
			"name":"THE MIST VILLAGE",
			"nodes":[
				0
			]
		}
	],
	"nodes":[
		{
			"mesh":0,
			"name":"asset \u00b7 wild flowers"
		}
	],
	"materials":[
		{
			"doubleSided":true,
			"name":"Wild Flowers",
			"pbrMetallicRoughness":{
				"baseColorTexture":{
					"index":0
				},
				"metallicFactor":0,
				"roughnessFactor":0.6000000238418579
			}
		}
	],
	"meshes":[
		{
			"name":"asset \u00b7 wild flowers",
			"primitives":[
				{
					"attributes":{
						"POSITION":0,
						"NORMAL":1,
						"TEXCOORD_0":2
					},
					"indices":3,
					"material":0
				}
			]
		}
	],
	"textures":[
		{
			"sampler":0,
			"source":0
		}
	],
	"images":[
		{
			"mimeType":"image/jpeg",
			"name":"wild_flowers_base",
			"uri":"textures/wild_flowers_base.jpg"
		}
	],
	"accessors":[
		{
			"bufferView":0,
			"componentType":5126,
			"count":2856,
			"max":[
				0.23916569352149963,
				0.4487714171409607,
				0.3485351502895355
			],
			"min":[
				-0.37959355115890503,
				-0.10796140879392624,
				-0.38826629519462585
			],
			"type":"VEC3"
		},
		{
			"bufferView":1,
			"componentType":5126,
			"count":2856,
			"type":"VEC3"
		},
		{
			"bufferView":2,
			"componentType":5126,
			"count":2856,
			"type":"VEC2"
		},
		{
			"bufferView":3,
			"componentType":5123,
			"count":4236,
			"type":"SCALAR"
		}
	],
	"bufferViews":[
		{
			"buffer":0,
			"byteLength":34272,
			"byteOffset":0,
			"target":34962
		},
		{
			"buffer":0,
			"byteLength":34272,
			"byteOffset":34272,
			"target":34962
		},
		{
			"buffer":0,
			"byteLength":22848,
			"byteOffset":68544,
			"target":34962
		},
		{
			"buffer":0,
			"byteLength":8472,
			"byteOffset":91392,
			"target":34963
		}
	],
	"samplers":[
		{
			"magFilter":9729,
			"minFilter":9987
		}
	],
	"buffers":[
		{
			"byteLength":99864,
			"uri":"veg_wild_flowers.bin"
		}
	]
}
