{
	"asset":{
		"generator":"Khronos glTF Blender I/O v5.2.39",
		"version":"2.0"
	},
	"scene":0,
	"scenes":[
		{
			"extras":{
				"uuid":"fe724002-1b06-4b77-bd3b-69e6411524f5",
				"assets reported":{}
			},
			"name":"THE MIST VILLAGE",
			"nodes":[
				0
			]
		}
	],
	"nodes":[
		{
			"mesh":0,
			"name":"asset \u00b7 wild flowers"
		}
	],
	"materials":[
		{
			"doubleSided":true,
			"name":"Wild Flowers",
			"pbrMetallicRoughness":{
				"baseColorTexture":{
					"index":0
				},
				"metallicFactor":0,
				"roughnessFactor":0.6000000238418579
			}
		}
	],
	"meshes":[
		{
			"name":"asset \u00b7 wild flowers",
			"primitives":[
				{
					"attributes":{
						"POSITION":0,
						"NORMAL":1,
						"TEXCOORD_0":2
					},
					"indices":3,
					"material":0
				}
			]
		}
	],
	"textures":[
		{
			"sampler":0,
			"source":0
		}
	],
	"images":[
		{
			"mimeType":"image/jpeg",
			"name":"wild_flowers_base",
			"uri":"textures/wild_flowers_base.jpg"
		}
	],
	"accessors":[
		{
			"bufferView":0,
			"componentType":5126,
			"count":430,
			"max":[
				0.20542454719543457,
				0.4213109016418457,
				0.3485351502895355
			],
			"min":[
				-0.33208543062210083,
				-0.04433789104223251,
				-0.33835989236831665
			],
			"type":"VEC3"
		},
		{
			"bufferView":1,
			"componentType":5126,
			"count":430,
			"type":"VEC3"
		},
		{
			"bufferView":2,
			"componentType":5126,
			"count":430,
			"type":"VEC2"
		},
		{
			"bufferView":3,
			"componentType":5123,
			"count":600,
			"type":"SCALAR"
		}
	],
	"bufferViews":[
		{
			"buffer":0,
			"byteLength":5160,
			"byteOffset":0,
			"target":34962
		},
		{
			"buffer":0,
			"byteLength":5160,
			"byteOffset":5160,
			"target":34962
		},
		{
			"buffer":0,
			"byteLength":3440,
			"byteOffset":10320,
			"target":34962
		},
		{
			"buffer":0,
			"byteLength":1200,
			"byteOffset":13760,
			"target":34963
		}
	],
	"samplers":[
		{
			"magFilter":9729,
			"minFilter":9987
		}
	],
	"buffers":[
		{
			"byteLength":14960,
			"uri":"veg_wild_flowers_lod.bin"
		}
	]
}
