{
	"asset":{
		"generator":"Khronos glTF Blender I/O v5.2.39",
		"version":"2.0"
	},
	"scene":0,
	"scenes":[
		{
			"extras":{
				"uuid":"fe724002-1b06-4b77-bd3b-69e6411524f5",
				"assets reported":{}
			},
			"name":"THE MIST VILLAGE",
			"nodes":[
				0
			]
		}
	],
	"nodes":[
		{
			"mesh":0,
			"name":"asset \u00b7 shrub 1"
		}
	],
	"materials":[
		{
			"doubleSided":true,
			"name":"Native Shrub",
			"pbrMetallicRoughness":{
				"baseColorTexture":{
					"index":0
				},
				"metallicFactor":0,
				"roughnessFactor":0.6000000238418579
			}
		}
	],
	"meshes":[
		{
			"name":"asset \u00b7 shrub 1",
			"primitives":[
				{
					"attributes":{
						"POSITION":0,
						"NORMAL":1,
						"TEXCOORD_0":2
					},
					"indices":3,
					"material":0
				}
			]
		}
	],
	"textures":[
		{
			"sampler":0,
			"source":0
		}
	],
	"images":[
		{
			"mimeType":"image/jpeg",
			"name":"native_shrub_base",
			"uri":"textures/native_shrub_base.jpg"
		}
	],
	"accessors":[
		{
			"bufferView":0,
			"componentType":5126,
			"count":456,
			"max":[
				0.5483102798461914,
				0.6811477541923523,
				0.3379054665565491
			],
			"min":[
				-0.42956385016441345,
				-0.03263895958662033,
				-0.6344475746154785
			],
			"type":"VEC3"
		},
		{
			"bufferView":1,
			"componentType":5126,
			"count":456,
			"type":"VEC3"
		},
		{
			"bufferView":2,
			"componentType":5126,
			"count":456,
			"type":"VEC2"
		},
		{
			"bufferView":3,
			"componentType":5123,
			"count":600,
			"type":"SCALAR"
		}
	],
	"bufferViews":[
		{
			"buffer":0,
			"byteLength":5472,
			"byteOffset":0,
			"target":34962
		},
		{
			"buffer":0,
			"byteLength":5472,
			"byteOffset":5472,
			"target":34962
		},
		{
			"buffer":0,
			"byteLength":3648,
			"byteOffset":10944,
			"target":34962
		},
		{
			"buffer":0,
			"byteLength":1200,
			"byteOffset":14592,
			"target":34963
		}
	],
	"samplers":[
		{
			"magFilter":9729,
			"minFilter":9987
		}
	],
	"buffers":[
		{
			"byteLength":15792,
			"uri":"veg_shrub_1_lod.bin"
		}
	]
}
