{
	"asset":{
		"generator":"Khronos glTF Blender I/O v5.2.39",
		"version":"2.0"
	},
	"scene":0,
	"scenes":[
		{
			"extras":{
				"uuid":"fe724002-1b06-4b77-bd3b-69e6411524f5",
				"assets reported":{}
			},
			"name":"THE MIST VILLAGE",
			"nodes":[
				0
			]
		}
	],
	"nodes":[
		{
			"mesh":0,
			"name":"asset \u00b7 silver oak 0"
		}
	],
	"materials":[
		{
			"name":"Tree Bark",
			"normalTexture":{
				"index":0
			},
			"pbrMetallicRoughness":{
				"baseColorTexture":{
					"index":1
				},
				"metallicFactor":0,
				"roughnessFactor":0.949999988079071
			}
		},
		{
			"doubleSided":true,
			"name":"Silver Oak Leaves",
			"pbrMetallicRoughness":{
				"baseColorTexture":{
					"index":2
				},
				"metallicFactor":0,
				"roughnessFactor":0.6000000238418579
			}
		}
	],
	"meshes":[
		{
			"name":"asset \u00b7 silver oak 0",
			"primitives":[
				{
					"attributes":{
						"POSITION":0,
						"NORMAL":1,
						"TEXCOORD_0":2
					},
					"indices":3,
					"material":0
				},
				{
					"attributes":{
						"POSITION":4,
						"NORMAL":5,
						"TEXCOORD_0":6
					},
					"indices":7,
					"material":1
				}
			]
		}
	],
	"textures":[
		{
			"sampler":0,
			"source":0
		},
		{
			"sampler":0,
			"source":1
		},
		{
			"sampler":0,
			"source":2
		}
	],
	"images":[
		{
			"mimeType":"image/png",
			"name":"tree_bark_normal",
			"uri":"textures/tree_bark_normal.png"
		},
		{
			"mimeType":"image/jpeg",
			"name":"tree_bark_base",
			"uri":"textures/tree_bark_base.jpg"
		},
		{
			"mimeType":"image/jpeg",
			"name":"silver_oak_leaves_base",
			"uri":"textures/silver_oak_leaves_base.jpg"
		}
	],
	"accessors":[
		{
			"bufferView":0,
			"componentType":5126,
			"count":36,
			"max":[
				0.42610034346580505,
				13.005858421325684,
				0.8158362507820129
			],
			"min":[
				-0.7280426621437073,
				-0.30115121603012085,
				-0.7728195190429688
			],
			"type":"VEC3"
		},
		{
			"bufferView":1,
			"componentType":5126,
			"count":36,
			"type":"VEC3"
		},
		{
			"bufferView":2,
			"componentType":5126,
			"count":36,
			"type":"VEC2"
		},
		{
			"bufferView":3,
			"componentType":5123,
			"count":36,
			"type":"SCALAR"
		},
		{
			"bufferView":4,
			"componentType":5126,
			"count":7980,
			"max":[
				1.8556729555130005,
				13.340810775756836,
				2.0872726440429688
			],
			"min":[
				-2.0333311557769775,
				4.838856220245361,
				-2.169365406036377
			],
			"type":"VEC3"
		},
		{
			"bufferView":5,
			"componentType":5126,
			"count":7980,
			"type":"VEC3"
		},
		{
			"bufferView":6,
			"componentType":5126,
			"count":7980,
			"type":"VEC2"
		},
		{
			"bufferView":7,
			"componentType":5123,
			"count":11304,
			"type":"SCALAR"
		}
	],
	"bufferViews":[
		{
			"buffer":0,
			"byteLength":432,
			"byteOffset":0,
			"target":34962
		},
		{
			"buffer":0,
			"byteLength":432,
			"byteOffset":432,
			"target":34962
		},
		{
			"buffer":0,
			"byteLength":288,
			"byteOffset":864,
			"target":34962
		},
		{
			"buffer":0,
			"byteLength":72,
			"byteOffset":1152,
			"target":34963
		},
		{
			"buffer":0,
			"byteLength":95760,
			"byteOffset":1224,
			"target":34962
		},
		{
			"buffer":0,
			"byteLength":95760,
			"byteOffset":96984,
			"target":34962
		},
		{
			"buffer":0,
			"byteLength":63840,
			"byteOffset":192744,
			"target":34962
		},
		{
			"buffer":0,
			"byteLength":22608,
			"byteOffset":256584,
			"target":34963
		}
	],
	"samplers":[
		{
			"magFilter":9729,
			"minFilter":9987
		}
	],
	"buffers":[
		{
			"byteLength":279192,
			"uri":"veg_silver_oak_0.bin"
		}
	]
}
